<?xml version="1.0" encoding="UTF-8" standalone="no"?>
<!-- Created with Inkscape (http://www.inkscape.org/) -->

<svg
   xmlns:dc="http://purl.org/dc/elements/1.1/"
   xmlns:cc="http://creativecommons.org/ns#"
   xmlns:rdf="http://www.w3.org/1999/02/22-rdf-syntax-ns#"
   xmlns:svg="http://www.w3.org/2000/svg"
   xmlns="http://www.w3.org/2000/svg"
   xmlns:xlink="http://www.w3.org/1999/xlink"
   xmlns:sodipodi="http://sodipodi.sourceforge.net/DTD/sodipodi-0.dtd"
   xmlns:inkscape="http://www.inkscape.org/namespaces/inkscape"
   version="1.1"
   id="svg2"
   width="1450.08"
   height="504.48001"
   viewBox="0 0 1450.08 504.48001"
   sodipodi:docname="FakIM_Vorlage Logo Vektor.svg"
   inkscape:version="0.92.4 (5da689c313, 2019-01-14)">
  <metadata
     id="metadata8">
    <rdf:RDF>
      <cc:Work
         rdf:about="">
        <dc:format>image/svg+xml</dc:format>
        <dc:type
           rdf:resource="http://purl.org/dc/dcmitype/StillImage" />
        <dc:title></dc:title>
      </cc:Work>
    </rdf:RDF>
  </metadata>
  <defs
     id="defs6" />
  <sodipodi:namedview
     pagecolor="#ffffff"
     bordercolor="#666666"
     borderopacity="1"
     objecttolerance="10"
     gridtolerance="10"
     guidetolerance="10"
     inkscape:pageopacity="0"
     inkscape:pageshadow="2"
     inkscape:window-width="1920"
     inkscape:window-height="1017"
     id="namedview4"
     showgrid="false"
     inkscape:zoom="0.70710678"
     inkscape:cx="726.66704"
     inkscape:cy="56.103587"
     inkscape:window-x="1912"
     inkscape:window-y="-8"
     inkscape:window-maximized="1"
     inkscape:current-layer="svg2" />
  <image
     sodipodi:absref="C:\Users\roman.hochhalter\Desktop\FakIM_Vorlage Logo Vektor.png"
     xlink:href="FakIM_Vorlage Logo Vektor.png"
     y="0"
     x="0"
     id="image10"
     style="image-rendering:optimizeQuality"
     preserveAspectRatio="none"
     height="504.48001"
     width="1450.08" />
  <g
     id="g3819">
    <path
       style="fill:#fefefe;stroke-width:0.48000002"
       d="M 0,252.24 V 0 h 725.04 725.04 V 252.24 504.48001 H 725.04 0 Z"
       id="path3825"
       inkscape:connector-curvature="0" />
    <path
       style="fill:#024da1;stroke-width:0.48000002"
       d="M 0,252.24 V 0 H 251.76 503.52 V 252.24 504.48001 H 251.76 0 Z m 344.64,97.44001 v -47.28 h -2.88 -2.88 v 47.28 47.28 h 2.88 2.88 z m 32.14404,15.24 -0.016,-32.04 -2.84808,-3.12 -2.84808,-3.12 -0.016,35.16 -0.0159,35.16 h 2.88 2.88 l -0.0159,-32.04 z m 76.33596,-15.24 c 0,-26.004 -0.162,-47.26712 -0.36,-47.25137 -0.198,0.0157 -9.41527,10.44649 -20.48282,23.17942 l -20.12283,23.15079 -1.76099,-1.93942 c -0.96854,-1.06668 -10.03586,-11.44342 -20.1496,-23.05942 -10.11374,-11.616 -18.57202,-21.192 -18.79619,-21.28 -0.22416,-0.088 -0.40757,1.78948 -0.40757,4.17218 v 4.33219 l 19.74247,22.70781 c 10.85837,12.4893 20.10505,23.0925 20.54819,23.56267 0.76353,0.8101 1.72158,-0.19673 18.29753,-19.22935 l 17.49181,-20.08422 0.12277,39.50936 0.12278,39.50936 h 2.87722 2.87723 z M 140.33753,200.63285 c 15.38248,-2.97682 27.66797,-9.55147 38.96175,-20.8506 11.15168,-11.15697 17.57101,-22.79618 20.96905,-38.02006 1.45784,-6.53138 1.5753,-24.1011 0.20327,-30.40219 -2.1993,-10.10027 -5.8982,-19.056315 -11.05888,-26.776515 -4.99212,-7.468051 -4.0174,-7.152787 -8.45992,-2.736327 -2.10804,2.095676 -3.8328,3.998002 -3.8328,4.227389 0,0.229388 1.16455,2.178452 2.58789,4.331261 4.80767,7.271607 8.30116,15.725052 9.94897,24.074192 1.01965,5.16636 0.88682,19.12672 -0.23046,24.22057 -2.85875,13.03354 -8.66322,23.75929 -17.81328,32.91611 -12.65121,12.66056 -28.29553,19.1344 -46.09312,19.07399 -14.22172,-0.0483 -25.600498,-3.94468 -38.921251,-13.32775 -0.517992,-0.36487 -1.600647,0.44625 -4.602917,3.44852 -4.602451,4.60245 -4.705934,4.08963 1.688376,8.36672 10.021867,6.70352 21.847482,11.01382 34.155792,12.44939 5.41693,0.6318 16.66188,0.13462 22.49753,-0.9947 z M 265.92,139.44 V 76.800002 h -5.52 -5.52 V 139.44 202.08 h 5.52 5.52 z m 82.56,-13.2 V 50.400001 h -5.52 -5.52 V 126.24 202.08 h 5.52 5.52 z m 104.64,0 V 50.400001 h -5.52 -5.52 V 126.24 202.08 h 5.52 5.52 z M 71.149382,170.05126 c 2.051837,-2.0398 3.730618,-3.84274 3.730618,-4.00652 0,-0.16378 -1.221638,-2.11285 -2.714746,-4.33126 -4.467422,-6.63754 -7.734288,-14.3628 -9.520526,-22.51348 -1.243162,-5.67259 -1.496496,-17.11161 -0.511651,-23.10294 4.378061,-26.634073 24.48971,-47.652639 51.187663,-53.495915 5.32354,-1.165147 16.46975,-1.420829 22.04497,-0.505694 9.69354,1.591133 18.38104,4.958626 26.18057,10.148251 2.17916,1.449965 4.13994,2.636299 4.3573,2.636299 0.48815,0 7.85642,-7.283548 7.85642,-7.766088 0,-0.715209 -10.99673,-7.639056 -15.37608,-9.681206 C 153.22722,55.02807 146.62375,52.831019 140.64,51.5291 137.36339,50.816195 134.48064,50.641259 126,50.640697 114.157,50.639737 110.1013,51.265542 100.67158,54.547811 77.324021,62.674566 59.461166,81.90701 52.80913,106.08 c -1.755068,6.37778 -2.486861,12.34381 -2.472836,20.16 0.02309,12.86823 2.538351,23.42219 8.205927,34.43186 2.743454,5.32936 7.806633,13.08814 8.540976,13.08814 0.18456,0 2.014344,-1.66893 4.066185,-3.70874 z M 426.72,126 v -5.52 h -31.2 -31.2 v 5.52 5.52 h 31.2 31.2 z M 310.56,55.920001 v -5.52 H 260.4 210.24 v 5.52 5.52 h 50.16 50.16 z m 247.2,322.320009 v -18.72 h 2.06986 2.06985 l 6.93015,11.01186 c 3.81158,6.05652 7.1136,10.83028 7.3378,10.60835 0.22421,-0.22194 3.38813,-5.12327 7.0309,-10.89187 l 6.62323,-10.48834 2.20911,-0.1463 2.2091,-0.1463 v 18.7463 18.7463 h -2.88 -2.88 v -12.09135 -12.09134 l -5.19682,8.13134 -5.19681,8.13135 -2.12319,0.1337 -2.12318,0.1337 -5.04,-7.99012 -5.04,-7.99012 -0.1284,11.81642 -0.12835,11.81642 H 560.6316 557.76 Z m 48.48,18.58123 c 0,-0.0763 3.44549,-8.44633 7.65662,-18.6 l 7.65663,-18.46123 h 2.25413 2.25417 l 7.6092,18.41028 c 4.18507,10.12566 7.60925,18.49566 7.60925,18.6 0,0.10435 -1.3597,0.18972 -3.0216,0.18972 h -3.02155 l -1.92427,-4.68 -1.92428,-4.68 h -7.62422 -7.62427 l -1.88386,4.68 -1.88385,4.68 h -3.06605 c -1.68634,0 -3.06605,-0.0625 -3.06605,-0.13877 z m 22.56,-15.09497 c 0,-0.19456 -1.12234,-3.1026 -2.49403,-6.46232 l -2.49403,-6.10857 -2.25548,5.44509 c -3.47736,8.39502 -3.74313,7.47954 2.17119,7.47954 2.78981,0 5.07235,-0.15918 5.07235,-0.35374 z m 27.36,-0.84626 v -16.08 h -5.04 -5.04 v -2.64 -2.64 H 659.04 672 v 2.64 2.64 h -5.04 -5.04 v 16.08 16.08 h -2.88 -2.88 z m 28.8,-2.64 v -18.72 h 2.88 2.88 v 7.2 7.2 h 10.08 10.08 v -7.2 -7.2 h 2.88 2.88 v 18.72 18.72 h -2.88 -2.88 v -8.64 -8.64 H 700.8 690.72 v 8.64 8.64 h -2.88 -2.88 z m 48,0 v -18.72 H 744 755.04 v 2.64 2.64 h -8.16 -8.16 v 4.56 4.56 h 6.24 6.24 v 2.88 2.88 h -6.24 -6.24 v 6 6 h 8.4 8.4 v 2.64 2.64 h -11.28 -11.28 z m 36.48,0 v -18.72 h 2.09592 2.09592 l 6.90408,10.98543 c 3.79723,6.04198 7.04731,10.90083 7.22237,10.79745 0.17505,-0.10339 3.38054,-5.04683 7.12329,-10.98543 l 6.80506,-10.79745 h 2.11666 2.1167 v 18.72 18.72 h -2.8716 -2.87165 l -0.12835,-11.85462 -0.1284,-11.85461 -5.0459,7.89461 -5.04591,7.89462 -2.15409,0.12733 -2.1541,0.12733 -5.04,-8.02397 -5.04,-8.02396 -0.1284,11.85663 -0.12835,11.85664 H 772.3116 769.44 Z m 48.91805,17.64 c 0.22785,-0.594 3.59405,-8.748 7.48041,-18.12 3.88637,-9.372 7.17783,-17.32073 7.31434,-17.66383 0.16574,-0.41659 0.97853,-0.57605 2.44661,-0.48 l 2.1984,0.14383 7.56566,18.24 c 4.16112,10.032 7.57263,18.402 7.58112,18.6 0.009,0.198 -1.3391,0.36 -2.99462,0.36 h -3.01003 l -1.90997,-4.79576 -1.90997,-4.79575 -7.5719,-0.004 -7.57186,-0.004 -0.47741,1.2557 c -0.26261,0.69064 -1.14139,2.85064 -1.95293,4.8 l -1.47547,3.5443 h -3.06336 c -2.9795,0 -3.05198,-0.0296 -2.64902,-1.08 z m 20.36755,-18.96 c -1.19626,-2.838 -2.37691,-5.67596 -2.62373,-6.30657 -0.24681,-0.63062 -0.52886,-1.06262 -0.62683,-0.96 -0.23602,0.24717 -5.07504,11.85961 -5.07504,12.17874 0,0.1363 2.36266,0.24783 5.25029,0.24783 h 5.25029 z m 29.1144,3.96 v -16.08 h -5.04 -5.04 v -2.64 -2.64 h 13.2 13.2 v 2.64 2.64 h -5.28 -5.28 v 16.08 16.08 h -2.88 -2.88 z m 28.8,-2.64 v -18.72 h 2.88 2.88 v 18.72 18.72 h -2.88 -2.88 z m 22.08,0 v -18.72 h 2.88 2.88 l 0.005,7.56 0.005,7.56 7.54224,-7.5777 7.54229,-7.57769 3.71203,0.13769 3.71208,0.1377 -8.29939,8.63102 -8.29939,8.63102 8.16897,9.12898 c 4.4929,5.02094 8.48683,9.50698 8.87535,9.96898 0.66331,0.78873 0.47486,0.83997 -3.08799,0.83954 l -3.7944,-4.6e-4 -7.92,-8.90799 -7.92,-8.908 -0.13061,8.90845 -0.13056,8.90846 h -2.86944 -2.86939 v -18.72 z M 673.68,340.12368 c -5.5595,-1.37757 -9.89299,-4.95762 -12.34589,-10.1994 -2.05089,-4.38267 -2.40677,-10.48761 -0.87465,-15.00447 1.84622,-5.44295 5.12505,-9.18785 10.07865,-11.51127 2.3376,-1.09643 3.27591,-1.24853 7.70189,-1.24853 4.51666,0 5.34427,0.14062 7.97021,1.35422 3.70661,1.71305 7.40347,5.42577 9.16651,9.20578 1.23682,2.65174 1.34328,3.33731 1.34328,8.65009 0,5.55086 -0.0598,5.89162 -1.57469,8.96871 -3.88853,7.89877 -12.75878,11.94223 -21.46531,9.78487 z m 8.94139,-5.81707 c 3.11808,-1.06244 5.4253,-3.18961 7.10458,-6.55018 2.6136,-5.23021 1.84248,-11.64676 -1.91223,-15.91234 -3.85819,-4.38312 -9.7895,-5.58023 -15.00513,-3.02847 -4.36987,2.138 -6.91987,6.04087 -7.39901,11.32445 -0.8867,9.77891 8.18218,17.24324 17.21179,14.16654 z m 292.90359,6.02048 c -4.68946,-0.99116 -8.56148,-4.11477 -10.66748,-8.60557 -1.24723,-2.65963 -1.2588,-2.79022 -1.41705,-16.00151 l -0.15955,-13.32 h 2.87889 2.87895 l 0.1606,12.84 0.16066,12.84 1.31304,2.23359 c 3.21619,5.47104 11.40326,6.27177 15.81643,1.54693 2.31994,-2.4838 2.47426,-3.45264 2.68541,-16.86052 l 0.19843,-12.6 h 2.83335 2.83334 v 11.43184 c 0,15.35917 -0.65232,18.49079 -4.67597,22.44864 -3.48225,3.42532 -9.72456,5.12759 -14.83905,4.0466 z M 557.76,321.36001 v -18.96 h 2.88 2.88 v 18.96 18.96 h -2.88 -2.88 z m 22.08,0 v -18.96 h 2.15318 2.15324 l 10.92676,13.39066 10.92682,13.39067 0.12749,-13.39067 0.12744,-13.39066 H 609.12749 612 v 18.96 18.96 h -2.13206 -2.13207 L 596.78794,326.89239 585.84,313.46476 l -0.12749,13.42763 -0.12744,13.42762 H 582.71251 579.84 Z m 48.48,0 v -18.96 h 10.8 10.8 v 2.64 2.64 H 642 634.08 v 4.56 4.56 h 6.24 6.24 v 2.88 2.88 h -6.24 -6.24 v 8.88 8.88 h -2.88 -2.88 z m 82.56,0 v -18.96 l 7.8,0.003 c 8.94941,0.003 10.74571,0.36872 13.34429,2.71637 3.9659,3.58296 4.26326,10.0689 0.64517,14.07367 -0.90188,0.99831 -2.33948,2.09362 -3.19464,2.43403 -0.85517,0.34041 -1.62687,0.67169 -1.7149,0.73617 -0.088,0.0645 2.77397,4.0172 6.36,8.7838 3.58603,4.7666 6.52008,8.78056 6.52008,8.91991 0,0.13935 -1.566,0.24342 -3.48,0.23125 l -3.48,-0.0221 -6.67234,-8.85789 c -6.62932,-8.80101 -6.68424,-8.85807 -8.52,-8.85807 H 716.64 v 8.88 8.88 h -2.88 -2.88 z m 16.39219,-5.07864 c 0.53299,-0.28525 1.27771,-1.25725 1.6549,-2.16 0.59438,-1.42262 0.59438,-1.86011 0,-3.28273 -0.94517,-2.26209 -1.97338,-2.67531 -7.49381,-3.01163 L 716.64,307.53499 v 4.63251 4.63251 h 4.83154 c 2.65737,0 5.26766,-0.23339 5.80065,-0.51864 z m 24.88781,5.05234 v -18.9863 l 2.26013,0.1463 2.26008,0.1463 6.98121,11.05257 6.98127,11.05257 6.97723,-11.05257 6.97718,-11.05257 2.26148,-0.1463 2.26142,-0.1463 v 18.9863 18.9863 h -2.87189 -2.87189 l -0.12811,-12.233 -0.12811,-12.233 -5.2007,8.153 -5.20071,8.153 h -2.07629 -2.07633 l -5.20301,-8.12732 -5.20296,-8.12731 -0.12811,12.20731 -0.12811,12.20732 H 755.03189 752.16 Z m 48.978,18.4092 c 0.0101,-0.3426 3.42451,-8.8309 7.58803,-18.8629 l 7.57008,-18.24 2.15578,-0.14238 2.15582,-0.14237 7.50783,18.14237 c 4.12929,9.97831 7.65163,18.52038 7.8275,18.98238 0.28392,0.74605 -0.0254,0.84 -2.76658,0.84 h -3.08625 l -1.9213,-4.68 -1.92129,-4.68 -7.7052,-0.13161 -7.70516,-0.13161 -1.88654,4.69161 -1.88654,4.69161 -2.97212,0.1429 c -2.19614,0.1056 -2.96736,-0.0197 -2.95406,-0.48 z m 22.542,-14.95423 c 0,-0.0942 -1.17077,-2.95622 -2.60174,-6.36 -2.36184,-5.6181 -2.64557,-6.07804 -3.07738,-4.98867 -0.2616,0.66 -1.44206,3.522 -2.62325,6.36 l -2.14761,5.16 h 5.22499 c 2.87376,0 5.22499,-0.0771 5.22499,-0.17133 z m 27.36,-0.78867 v -16.32 H 846 840.96 v -2.64 -2.64 h 12.96 12.96 v 2.64 2.64 h -5.04 -5.04 v 16.32 16.32 h -2.88 -2.88 z m 28.32,-2.64 v -18.96 h 2.88 2.88 v 18.96 18.96 h -2.88 -2.88 z m 22.56,0 v -18.96 h 2.88 2.88 l 0.0245,7.56 0.0245,7.56 7.29576,-7.56454 7.29571,-7.56454 3.72,0.004 c 2.046,0.002 3.72,0.17466 3.72,0.38258 0,0.20793 -1.09757,1.44993 -2.43907,2.76 -1.3415,1.31008 -5.01331,5.10968 -8.15962,8.44355 l -5.72049,6.06159 8.87957,9.91226 c 4.8838,5.45175 8.87961,10.01403 8.87961,10.13841 0,0.12439 -1.674,0.21584 -3.72,0.20323 l -3.72,-0.0229 -7.92,-8.92868 -7.92,-8.92867 -0.13061,8.95159 -0.13056,8.9516 h -2.86944 -2.86939 v -18.96 z m 108.96,0 v -18.96 h 2.1063 2.1064 l 10.7336,13.16426 10.7337,13.16426 0.1276,-13.16426 0.1276,-13.16426 h 2.8724 2.8724 v 18.96 18.96 l -2.04,-0.0346 -2.04,-0.0346 -10.92,-13.4517 -10.92,-13.4517 v 13.48625 13.48624 h -2.88 -2.88 v -18.96 z m 48.48,0.0605 v -19.02046 h 7.4164 c 8.051,0 11.3212,0.48403 14.6731,2.17179 2.8659,1.44307 6.4674,5.35686 8.0641,8.76353 1.1572,2.46903 1.2842,3.27495 1.2644,8.02468 -0.019,4.64159 -0.1726,5.60645 -1.2671,7.98002 -1.416,3.07093 -4.1357,6.28484 -6.6746,7.88756 -3.3338,2.10456 -6.4154,2.70628 -15.1963,2.96725 l -8.28,0.24609 z m 18.7714,11.62207 c 5.6153,-2.60091 8.387,-9.3369 6.5053,-15.80992 -0.9027,-3.10497 -3.4757,-6.30568 -6.1769,-7.68371 -1.7631,-0.89947 -7.7065,-1.83811 -11.7798,-1.86037 l -1.56,-0.009 v 13.49309 13.49311 l 5.16,-0.18856 c 4.2919,-0.15683 5.6128,-0.39826 7.8514,-1.43511 z M 645.13162,201.82144 c -3.67796,-1.03163 -6.21082,-2.637 -9.03384,-5.72583 -2.89844,-3.17137 -4.39772,-6.80507 -4.75954,-11.53561 -0.92059,-12.03596 8.44334,-21.61902 20.26176,-20.73583 4.30008,0.32134 8.2681,1.81946 10.79472,4.07553 l 1.99382,1.7803 -1.93502,1.87862 -1.93502,1.87862 -1.81925,-1.25641 c -4.41255,-3.0474 -9.47328,-3.63765 -13.82275,-1.6122 -8.58903,3.99972 -10.38576,16.58369 -3.263,22.85341 4.11879,3.6255 10.2985,4.46994 15.06044,2.05796 l 2.60606,-1.32 0.1368,-4.92 0.1368,-4.92 h -5.2968 -5.2968 v -2.64 -2.64 h 8.4 8.4 v 8.3626 8.3626 l -2.04,1.77705 c -3.44654,3.00227 -7.46506,4.6176 -12.01939,4.83141 -2.60631,0.12236 -4.83058,-0.0646 -6.56899,-0.55222 z m 125.50838,0.0959 c -3.80021,-1.25873 -8.4,-4.42911 -8.4,-5.78961 0,-0.31508 0.86578,-1.41825 1.92389,-2.45151 l 1.92393,-1.87864 0.7501,1.07095 c 1.34194,1.91588 5.46216,3.922 8.06544,3.927 5.96414,0.0115 8.58168,-5.52426 4.2863,-9.06488 -0.93278,-0.76888 -3.65822,-2.2113 -6.05654,-3.20539 -3.05078,-1.26452 -4.96685,-2.41367 -6.37886,-3.82571 -4.85732,-4.85732 -3.48634,-12.33957 2.88028,-15.71949 3.97983,-2.1128 12.66188,-0.97165 15.36941,2.02011 0.69139,0.76399 0.61488,0.99197 -0.94353,2.81267 l -1.69594,1.9813 -2.21371,-1.17706 c -3.90149,-2.07442 -8.43279,-1.30984 -9.98103,1.6841 -1.47081,2.84422 0.24077,4.69582 7.45215,8.06173 5.58206,2.60543 8.30952,4.92952 9.0923,7.74754 1.5145,5.45215 -0.65045,10.64361 -5.46873,13.11374 -2.43687,1.24927 -7.85698,1.60352 -10.60546,0.69315 z m 82.0237,0.21533 c -4.61429,-1.18829 -8.4696,-4.37732 -10.4378,-8.63388 -0.95764,-2.07114 -1.03612,-3.12091 -1.17931,-15.77876 l -0.15341,-13.56 h 2.87909 2.87904 l 0.15437,13.08 c 0.16603,14.07123 0.2495,14.56545 2.87525,17.01709 4.84344,4.52229 13.9416,2.63157 16.20854,-3.36833 0.31378,-0.83045 0.51053,-6.24182 0.51053,-14.04 V 164.16 h 2.90702 2.90703 l -0.14703,13.8 c -0.14078,13.21615 -0.19305,13.89342 -1.23494,16.00794 -2.48837,5.0501 -7.40914,8.16467 -13.28582,8.40916 -1.86245,0.0775 -4.0596,-0.0325 -4.88256,-0.24446 z m 86.78481,-0.29153 c -9.46392,-2.66151 -15.22473,-11.96852 -13.57848,-21.93694 0.74995,-4.54125 2.77546,-8.34792 6.01925,-11.31259 3.80443,-3.47702 6.98794,-4.634 12.75072,-4.634 5.40715,0 8.84534,1.12998 11.99472,3.94212 l 1.99382,1.7803 -1.91592,1.85998 -1.91596,1.85999 -1.44346,-1.02784 c -6.12422,-4.36083 -13.88558,-3.82155 -18.3611,1.27576 -3.75735,4.27941 -4.63157,10.6055 -2.16284,15.65137 1.5445,3.15684 4.34602,5.71675 7.3922,6.75469 3.09201,1.05356 7.5358,0.94393 10.1699,-0.25088 3.70474,-1.68045 3.84864,-1.9421 3.84864,-6.99746 V 184.32 h -5.52 -5.52 v -2.64 -2.64 h 8.4 8.4 v 8.34415 8.34415 l -1.98077,1.78951 c -3.26318,2.94806 -7.47053,4.63951 -12.07862,4.85585 -2.56959,0.12064 -4.82832,-0.0647 -6.4921,-0.53255 z M 557.76,183.08113 v -18.99887 l 8.52,0.16099 c 7.75738,0.14659 8.70254,0.25833 10.55947,1.24836 6.80755,3.62951 6.71319,14.12105 -0.15859,17.62839 -1.0345,0.528 -1.9655,1.00864 -2.06894,1.06808 -0.10344,0.0594 2.60808,3.83944 6.02563,8.4 3.41755,4.56056 6.37694,8.56192 6.57643,8.89192 0.2773,0.45877 -0.47918,0.6 -3.21374,0.6 h -3.57639 l -6.64195,-8.88 c -6.564,-8.77575 -6.66322,-8.88 -8.45194,-8.88 H 563.52 v 8.88 8.88 h -2.88 -2.88 z m 14.98584,-4.54246 c 2.19245,-0.6089 3.25416,-2.03233 3.25416,-4.3628 0,-1.3878 -0.31925,-2.03915 -1.47682,-3.0132 -1.37169,-1.15419 -1.81598,-1.24267 -6.24,-1.24267 H 563.52 v 4.56 4.56 l 3.72,-0.003 c 2.046,-0.001 4.52362,-0.22586 5.50584,-0.49865 z M 599.04,183.12 v -18.96 h 10.8 10.8 v 2.88 2.88 h -7.92 -7.92 v 4.56 4.56 h 6.24 6.24 v 2.64 2.64 h -6.24 -6.24 v 6 6 h 8.4 8.4 v 2.88 2.88 h -11.28 -11.28 z m 81.6,0 v -18.96 h 11.04 11.04 v 2.88 2.88 h -8.16 -8.16 v 4.56 4.56 h 6.24 6.24 v 2.64 2.64 h -6.24 -6.24 v 6 6 h 8.4 8.4 v 2.88 2.88 h -11.28 -11.28 z m 36.48,0 v -18.96 l 2.04,0.0215 2.04,0.0215 10.8,13.29593 10.8,13.29593 0.12758,-13.31744 0.12759,-13.31744 h 2.87241 2.87242 v 18.96 18.96 h -2.07696 -2.07696 L 733.88304,188.86624 723.12,175.65249 l -0.12758,13.21375 -0.12759,13.21375 H 719.99242 717.12 v -18.96 z m 84,0.0434 v -19.00341 h 7.35288 c 5.15074,0 8.08176,0.21645 9.78662,0.72274 5.90405,1.75331 8.65973,9.19317 5.26882,14.22493 l -1.06344,1.578 1.88261,1.69716 c 2.48165,2.23726 3.62885,4.85564 3.64195,8.31259 0.0173,4.49244 -2.06107,8.02412 -5.92982,10.07727 -1.80432,0.95756 -2.819,1.06579 -11.45962,1.22235 l -9.48,0.17177 z m 19.47806,11.12364 c 1.84052,-2.00981 2.15876,-4.21532 0.94647,-6.55961 -1.33195,-2.57573 -2.83392,-3.1296 -9.02453,-3.3279 l -5.64,-0.18065 v 6.0897 6.0897 l 6.03806,-0.15914 6.03812,-0.15915 z M 816,178.41291 c 1.18286,-0.40338 1.93771,-1.10024 2.55101,-2.35504 0.81197,-1.66135 0.81849,-1.89271 0.0969,-3.4135 -1.05326,-2.21958 -2.43744,-2.72437 -7.47048,-2.72437 H 806.88 v 4.56 4.56 l 3.72,-0.0271 c 2.046,-0.0149 4.476,-0.2849 5.4,-0.6 z m 72.48,4.70709 v -18.96 l 7.56,0.003 c 4.158,10e-4 8.424,0.23868 9.48,0.52714 6.9925,1.91004 9.55147,10.58909 4.76938,16.17587 -0.88594,1.03503 -2.32148,2.16495 -3.19008,2.51094 -0.86861,0.34598 -1.66392,0.69441 -1.76736,0.77429 -0.10344,0.0799 2.60808,3.8766 6.02563,8.43716 3.41755,4.56056 6.37694,8.56193 6.57643,8.89193 0.2772,0.45862 -0.47458,0.6 -3.1907,0.6 h -3.55335 l -6.67497,-8.87992 c -6.58066,-8.75444 -6.70042,-8.87991 -8.47498,-8.88 l -1.8,-2.9e-4 v 8.88 8.88 h -2.88 -2.88 z m 14.98584,-4.58133 c 2.17709,-0.60463 3.25915,-2.03638 3.2389,-4.28547 -0.0305,-3.37789 -1.76621,-4.3332 -7.8732,-4.3332 H 894.24 v 4.56 4.56 l 3.72,-0.003 c 2.046,-0.001 4.52362,-0.22586 5.50584,-0.49865 z M 637.39627,144.55688 c -5.0987,-1.68288 -9.17304,-5.30241 -11.40417,-10.13114 -1.0908,-2.36078 -1.23404,-3.29723 -1.25189,-8.18574 -0.0192,-5.22596 0.061,-5.69132 1.5035,-8.73634 4.31784,-9.1144 14.63923,-13.11301 24.41083,-9.457 2.70096,1.01058 6.46546,3.58096 6.46546,4.41463 0,0.29603 -0.77386,1.33073 -1.71965,2.29933 l -1.71965,1.76109 -2.39496,-1.61167 c -3.03408,-2.04181 -5.69193,-2.76087 -9.08049,-2.45666 -7.32255,0.65739 -12.47232,7.18709 -11.84376,15.0174 0.57672,7.18455 6.08894,12.26668 13.38595,12.34147 3.27062,0.0335 5.12702,-0.64949 8.46859,-3.11578 l 2.53603,-1.87176 1.90397,1.50798 c 1.04717,0.82939 1.90397,1.79937 1.90397,2.15551 0,0.97923 -3.78869,3.88078 -6.99355,5.35598 -3.76541,1.73323 -10.1112,2.05239 -14.17018,0.7127 z M 795.6,144.77169 c -2.73533,-0.86062 -3.93442,-1.57771 -6.32909,-3.78507 l -2.11061,-1.94548 1.79727,-1.84057 c 0.98851,-1.01231 2.03976,-1.84057 2.33616,-1.84057 0.2964,0 1.06257,0.56102 1.70261,1.24672 3.99528,4.28042 11.09438,4.26655 13.11648,-0.0256 1.58481,-3.3639 -0.59333,-6.06781 -7.04074,-8.74022 -5.09198,-2.11059 -8.71325,-5.0798 -9.45571,-7.75306 -1.46127,-5.26112 0.4907,-9.61559 5.47824,-12.2211 1.46611,-0.7659 2.838,-1.02094 5.56833,-1.03518 3.15015,-0.0164 4.04271,0.18777 6.84,1.56487 1.76938,0.87107 3.21706,1.85823 3.21706,2.19371 0,0.33547 -0.702,1.40764 -1.56,2.38259 l -1.56,1.77264 -2.36136,-1.21267 c -3.7645,-1.93325 -7.72354,-1.40121 -9.6095,1.29139 -2.02085,2.88517 -0.39168,4.8241 7.14652,8.50526 6.68223,3.26317 8.48909,4.93879 9.39428,8.71208 0.91152,3.79972 -0.0636,7.2602 -2.81885,10.00368 -1.34871,1.34289 -3.01248,2.45354 -4.20677,2.80821 -2.49898,0.74211 -7.05,0.7032 -9.54432,-0.0816 z m 40.96147,-0.22559 c -1.4952,-0.49311 -3.4392,-1.3446 -4.32,-1.8922 -12.01013,-7.46684 -11.49485,-27.01873 0.8845,-33.5603 7.07405,-3.73812 16.02936,-2.99752 21.35448,1.76601 l 2.07955,1.86023 -1.8877,1.95015 -1.88774,1.95015 -1.64894,-1.25772 c -4.36637,-3.33039 -9.7056,-3.92025 -14.37308,-1.58788 -4.70356,2.35041 -7.29393,6.60857 -7.31198,12.01996 -0.0202,5.95622 2.53051,10.30971 7.44984,12.71651 4.85328,2.37449 11.42683,1.39204 14.89296,-2.22584 0.74045,-0.77284 1.57584,-1.39618 1.85645,-1.38518 0.28061,0.011 1.36041,0.77066 2.39961,1.68817 l 1.88943,1.6682 -1.88943,1.9386 c -1.0392,1.06623 -3.27144,2.61998 -4.9606,3.45275 -2.64951,1.30627 -3.67095,1.53342 -7.44,1.65455 -3.27413,0.10522 -5.04999,-0.0842 -7.08735,-0.75616 z m 199.63113,0.3986 c -7.4437,-1.86474 -13.0968,-8.93678 -13.653,-17.07984 -0.7338,-10.74323 5.4358,-19.02981 15.5716,-20.91475 5.9475,-1.10605 12.6274,1.07754 16.737,5.47114 8.9679,9.58736 6.1366,25.80421 -5.452,31.22715 -2.6971,1.2621 -3.8831,1.5263 -7.3079,1.62786 -2.2486,0.0667 -4.9017,-0.0825 -5.8957,-0.33156 z m 10.0344,-5.99715 c 2.1315,-0.86884 5.3388,-3.8968 6.5616,-6.19481 0.8538,-1.6044 1.0402,-2.76616 1.0453,-6.51274 0.01,-3.92065 -0.1616,-4.88835 -1.1899,-6.90187 -4.9294,-9.65234 -18.6481,-9.16571 -23.0578,0.81791 -2.1332,4.82944 -1.596,10.4377 1.3953,14.56707 3.3344,4.60293 9.8724,6.41458 15.2455,4.22444 z m 39.891,5.97133 c -10.2413,-2.41371 -16.3691,-13.32895 -13.5528,-24.14144 0.9829,-3.77357 2.688,-6.53107 5.7938,-9.3696 6.7603,-6.1785 17.9432,-6.28755 25.1244,-0.245 l 1.5402,1.29602 -2.0201,2.05831 -2.0201,2.05832 -1.7317,-1.38871 c -6.6027,-5.29488 -16.2743,-3.02707 -20.0561,4.70282 -1.1264,2.30218 -1.3364,3.3259 -1.3025,6.34763 0.048,4.25579 0.8706,6.4037 3.5779,9.3408 4.9226,5.34036 13.2106,5.69845 18.7767,0.81126 0.9455,-0.83011 1.9181,-1.50929 2.1615,-1.50929 0.2433,0 1.1816,0.76258 2.085,1.69462 1.9462,2.00798 1.8012,2.43792 -1.7379,5.1533 -4.1496,3.18386 -11.0518,4.50759 -16.6383,3.19096 z m 85.7216,-0.36739 c -2.5822,-0.89234 -5.5739,-2.85926 -6.9756,-4.58618 -0.7856,-0.96782 -0.7506,-1.07243 0.9374,-2.80531 0.9644,-0.99 1.9959,-1.8 2.2923,-1.8 0.2964,0 1.0626,0.56102 1.7026,1.24672 2.3564,2.52447 6.3244,3.87931 9.0476,3.08917 2.6922,-0.78117 4.3561,-2.72531 4.3561,-5.08984 0,-1.71949 -0.2635,-2.25162 -1.8,-3.6354 -0.99,-0.89158 -3.7577,-2.43103 -6.1505,-3.42099 -7.0325,-2.90957 -9.6756,-6.24926 -9.2271,-11.65849 0.2774,-3.34417 2.0402,-5.89404 5.3175,-7.6914 2.1203,-1.16281 3.0505,-1.37232 6.123,-1.37912 3.1378,-0.007 4.0537,0.20407 6.84,1.57575 1.7694,0.87107 3.2139,1.84022 3.2099,2.15368 0,0.31346 -0.7059,1.38398 -1.56,2.37895 l -1.5528,1.80903 -2.3614,-1.20903 c -3.7671,-1.92881 -7.725,-1.39542 -9.6095,1.29503 -2.0375,2.90893 -0.3432,4.92605 7.1692,8.53511 6.7152,3.22611 8.5194,4.92252 9.3489,8.79014 1.576,7.34854 -3.5676,13.27753 -11.5072,13.26448 -1.7358,-0.003 -4.2204,-0.38542 -5.6004,-0.8623 z m 41.5219,-0.005 c -3.4551,-1.13946 -5.4115,-2.36237 -7.9299,-4.95697 -6.8357,-7.04268 -6.9272,-19.62289 -0.1956,-26.92578 6.5435,-7.09894 19.1491,-7.97194 26.0444,-1.80373 l 2.0796,1.86022 -1.8877,1.95015 -1.8877,1.95015 -1.649,-1.25771 c -7.5553,-5.76275 -17.6468,-2.9455 -21.0119,5.86594 -1.22,3.19424 -0.7784,8.98666 0.9038,11.85711 2.4901,4.2491 6.7143,6.70535 11.5796,6.73321 3.4406,0.0197 7.1485,-1.40656 9.1863,-3.53352 0.7404,-0.77284 1.5758,-1.39932 1.8564,-1.39217 0.2806,0.007 1.3418,0.78587 2.3583,1.73052 l 1.848,1.71753 -1.848,1.89626 c -1.0165,1.04295 -3.2301,2.57763 -4.9193,3.41041 -2.6495,1.30627 -3.6709,1.53342 -7.44,1.65454 -3.2741,0.10522 -5.05,-0.0842 -7.0873,-0.75616 z m 91.8569,0.013 c -4.8096,-1.71492 -8.1759,-5.41388 -9.4465,-10.37997 -0.5612,-2.19349 -0.7319,-5.69256 -0.7319,-15 V 107.04 h 2.88 2.88 v 11.49638 c 0,12.52211 0.39,15.59253 2.2632,17.81868 3.6389,4.32462 11.5404,4.64742 15.0789,0.61602 2.2353,-2.54671 2.3379,-3.29032 2.3379,-16.94724 V 107.04 h 3.12 3.12 v 11.16 c 0,15.20329 -0.6182,18.39473 -4.3521,22.64742 -3.5274,4.01744 -11.4676,5.73633 -17.1459,3.7117 z M 563.52,128.88 V 112.8 h -5.04 -5.04 v -2.88 -2.88 h 13.2 13.2 v 2.88 2.88 h -5.28 -5.28 v 16.08 16.08 h -2.88 -2.88 z m 28.8,-2.88 v -18.96 h 10.8 10.8 v 2.88 2.88 H 606 598.08 v 4.56 4.56 h 6 6 v 2.64 2.64 h -6 -6 v 6 6 h 8.16 8.16 v 2.88 2.88 h -11.04 -11.04 z m 79.2,0 v -18.96 h 2.88 2.88 v 7.44 7.44 h 10.08 10.08 v -7.44 -7.44 h 2.88 2.88 V 126 144.96 h -2.88 -2.88 v -8.88 -8.88 h -10.08 -10.08 v 8.88 8.88 h -2.88 -2.88 z m 48.48,0 v -18.96 l 2.04,0.0279 2.04,0.0279 10.92,13.4604 10.92,13.4604 v -13.48833 -13.48833 h 2.88 2.88 v 18.96 18.96 h -2.09866 -2.09865 L 736.74134,131.78378 726,118.60756 l -0.12758,13.17622 -0.12759,13.17623 H 722.87242 720 v -18.96 z m 48.48,0 v -18.96 h 2.88 2.88 V 126 144.96 h -2.88 -2.88 z m 102.24,0 v -18.96 h 2.88 2.88 v 7.44 7.44 h 10.08 10.08 v -7.44 -7.44 h 2.88 2.88 V 126 144.96 h -2.88 -2.88 v -8.88 -8.88 h -10.08 -10.08 v 8.88 8.88 h -2.88 -2.88 z m 48,0 v -18.96 h 11.04 11.04 v 2.88 2.88 h -7.92 -7.92 v 4.56 4.56 h 6 6 v 2.64 2.64 h -6 -6 v 6 6 h 8.16 8.16 v 2.88 2.88 H 930 918.72 Z m 58.08,0 v -18.96 h 2.88 2.88 v 7.44 7.44 h 10.32 10.32 v -7.44 -7.44 h 2.88 2.88 V 126 144.96 h -2.88 -2.88 v -8.88 -8.88 h -10.32 -10.32 v 8.88 8.88 h -2.88 -2.88 z m 142.08,0 v -18.96 h 2.88 2.88 v 7.44 7.44 h 10.08 10.08 v -7.44 -7.44 h 3.12 3.12 V 126 144.96 h -3.12 -3.12 v -8.88 -8.88 h -10.08 -10.08 v 8.88 8.88 h -2.88 -2.88 z m 128.64,0 v -18.96 h 2.88 2.88 v 7.44 7.44 h 10.08 10.08 v -7.44 -7.44 h 2.88 2.88 V 126 144.96 h -2.88 -2.88 v -8.88 -8.88 h -10.08 -10.08 v 8.88 8.88 h -2.88 -2.88 z m 95.04,0 v -18.96 h 2.88 2.88 v 16.08 16.08 h 8.16 8.16 v 2.88 2.88 h -11.04 -11.04 z m 35.04,0 v -18.96 h 10.8 10.8 v 2.88 2.88 h -7.92 -7.92 v 4.56 4.56 h 6.24 6.24 v 2.64 2.64 h -6.24 -6.24 v 6 6 h 8.16 8.16 v 2.88 2.88 h -11.04 -11.04 z M 567.08314,87.467949 c -5.09645,-1.807253 -8.75141,-5.448418 -11.02872,-10.987133 -1.5206,-3.698155 -1.63162,-10.201671 -0.24308,-14.237549 2.64821,-7.697098 9.12615,-12.345058 17.28,-12.398535 6.44957,-0.04229 10.20552,1.545869 14.33088,6.059664 3.56069,3.895978 4.6273,6.942231 4.6273,13.215605 0,6.381581 -1.0656,9.356132 -4.79486,13.384148 -3.7286,4.027368 -7.17879,5.518589 -13.17466,5.694307 -3.4369,0.100723 -5.16019,-0.07919 -6.99686,-0.730507 z m 10.17072,-5.137133 c 3.06024,-0.908803 6.11544,-3.533198 7.75862,-6.664647 1.11048,-2.116344 1.29403,-3.044913 1.29403,-6.546168 0,-3.501254 -0.18355,-4.429824 -1.29403,-6.546168 -5.07518,-9.671914 -17.90261,-9.671006 -23.06971,0.0014 -1.52655,2.857719 -1.53907,10.2186 -0.0221,13.024536 1.57469,2.912693 4.55966,5.529989 7.44225,6.525538 3.13013,1.081032 4.79602,1.124371 7.89096,0.205277 z m 32.82873,5.188551 c -2.36165,-0.826268 -5.47406,-2.820529 -6.93528,-4.44373 -0.9324,-1.035763 -0.93206,-1.036747 1.02312,-2.991965 l 1.95586,-1.955861 2.47925,1.959711 c 2.31168,1.827268 4.90934,2.943499 6.86476,2.949801 1.55564,0.005 4.63061,-1.515638 5.38114,-2.661134 1.07222,-1.636378 0.93768,-4.16628 -0.30557,-5.746824 -0.63369,-0.805604 -3.07464,-2.283836 -6.12,-3.706253 -2.78621,-1.301386 -5.79139,-2.916399 -6.67809,-3.588912 -3.024,-2.29345 -4.33421,-7.652549 -2.765,-11.309616 0.87077,-2.029393 3.43162,-4.421713 5.78319,-5.402607 2.38848,-0.996307 7.51891,-1.008499 10.26576,-0.02438 2.19782,0.787402 4.88827,2.501942 4.88827,3.115138 0,0.202041 -0.702,1.176129 -1.56,2.164651 l -1.56,1.797302 -2.64,-1.232644 c -1.452,-0.677952 -3.24096,-1.234753 -3.97541,-1.23733 -1.90435,-0.0067 -4.40789,1.146518 -5.32185,2.451408 -2.01975,2.88359 -0.31892,5.08381 6.3683,8.238163 6.17285,2.911738 7.48747,3.855116 9.02971,6.47977 0.95583,1.626682 1.20327,2.689445 1.1893,5.108136 -0.0274,4.721122 -2.36899,8.394063 -6.43464,10.09237 -2.30885,0.964474 -8.10202,0.935237 -10.93282,-0.05517 z M 898.08,87.871139 c -2.27602,-0.694838 -5.18141,-2.402625 -6.99101,-4.10927 l -1.81478,-1.711594 1.86029,-1.905134 c 1.02316,-1.047826 2.05334,-1.905139 2.28926,-1.905139 0.23592,0 1.36728,0.825979 2.51419,1.83551 1.98576,1.747954 4.79703,2.976806 6.75773,2.953949 2.02152,-0.02357 5.01278,-1.860389 5.69722,-3.498447 1.43731,-3.439963 -0.12634,-5.387736 -6.88431,-8.575526 -6.11649,-2.885208 -7.89993,-4.213483 -9.16445,-6.825576 -2.46153,-5.084928 0.0302,-11.237957 5.47205,-13.511079 4.11403,-1.718563 11.98546,-0.513168 14.45285,2.213256 0.75245,0.831427 0.75643,0.99024 0.0505,1.995614 -2.21529,3.155069 -1.99876,3.062722 -4.38566,1.870666 -4.11341,-2.054333 -7.85957,-1.764763 -9.84643,0.761112 -2.37159,3.015019 -0.71775,5.074493 7.21041,8.978856 6.79445,3.346037 8.31984,4.832482 9.17842,8.943941 1.04304,4.994933 -1.4447,9.924173 -6.07632,12.039677 -2.01499,0.920362 -7.93291,1.17794 -10.32,0.449184 z m 41.04,-0.198163 c -6.21773,-2.055778 -10.40179,-6.117485 -12.40123,-12.038482 -1.05903,-3.136277 -1.06253,-9.875707 -0.007,-13.028986 2.97432,-8.883259 11.06136,-13.798949 20.81021,-12.649469 3.32414,0.391949 8.28768,2.61852 10.07251,4.51838 l 1.16093,1.235765 -1.96776,1.967774 -1.96776,1.96777 -1.90373,-1.529866 c -6.34171,-5.096352 -15.35304,-3.155333 -19.70299,4.243992 -1.15944,1.972181 -1.29346,2.672626 -1.29346,6.760147 0,4.07629 0.13546,4.789128 1.27718,6.720001 2.71671,4.59454 6.73157,6.927192 11.92282,6.927192 3.5737,0 6.5017,-1.139482 9.02962,-3.514023 0.87432,-0.821241 1.74844,-1.493169 1.9426,-1.493169 0.19412,0 1.1929,0.860164 2.21948,1.91148 l 1.86648,1.91148 -2.09544,1.93452 c -3.59252,3.316584 -6.67503,4.487381 -12.24274,4.650062 -3.05851,0.08936 -5.49658,-0.09007 -6.72,-0.494568 z M 646.56,71.760001 v -16.08 h -5.04 -5.04 v -2.64 -2.64 h 12.96 12.96 v 2.64 2.64 h -5.04 -5.04 v 16.08 16.080001 h -2.88 -2.88 z m 28.32,-2.64 v -18.72 l 8.28,0.01056 c 7.02173,0.0089 8.57179,0.145205 10.2,0.896678 5.0135,2.313893 6.93394,8.137229 4.36003,13.221265 l -1.15992,2.291184 1.66824,1.46472 c 5.99784,5.266185 4.72944,15.077573 -2.37696,18.386261 -2.36155,1.099526 -2.97288,1.160218 -11.73139,1.164662 l -9.24,0.0047 z m 18.41102,12.329333 c 3.87879,-2.54148 3.75888,-8.137104 -0.21844,-10.193865 -0.94666,-0.489519 -2.98661,-0.695468 -6.88872,-0.695468 H 680.64 v 6.059161 6.059164 l 5.6977,-0.203145 c 4.31476,-0.153835 6.00249,-0.402831 6.95332,-1.025847 z M 690.49339,64.22655 c 1.36512,-0.62197 2.62661,-2.636827 2.62661,-4.195138 0,-0.536947 -0.62995,-1.681675 -1.39987,-2.543836 -1.38096,-1.546455 -1.46506,-1.569797 -6.24,-1.732556 L 680.64,55.590044 v 4.604976 4.604981 h 4.29739 c 2.36362,0 4.86379,-0.258053 5.556,-0.573451 z m 20.49759,22.760905 c 0.12969,-0.495879 3.55521,-8.930919 7.61227,-18.744529 l 7.37649,-17.842925 h 2.19975 2.19969 l 5.10183,12.36 c 2.80598,6.798 6.29544,15.231706 7.75435,18.741567 l 2.65258,6.381567 -3.19589,-0.141567 -3.19589,-0.141566 -1.88203,-4.68 -1.88203,-4.68 h -7.5721 -7.5721 l -1.88188,4.68 -1.88184,4.68 -3.03452,0.144523 c -2.76801,0.131832 -3.01377,0.06535 -2.79868,-0.75707 z m 22.369,-14.458575 C 732.24384,69.521397 728.3411,60.484806 728.16,60.488507 c -0.132,0.0029 -1.09008,2.107886 -2.12904,4.6782 -1.03896,2.570314 -2.17584,5.375294 -2.52643,6.233294 l -0.63739,1.56 h 5.32641 c 2.94715,0 5.25499,-0.19258 5.16643,-0.431121 z M 761.76,79.188434 v -8.651569 l -6.24,-9.853272 c -3.432,-5.419306 -6.24,-9.950098 -6.24,-10.068437 0,-0.118334 1.458,-0.213264 3.24,-0.210955 l 3.24,0.0043 1.75622,2.755805 c 0.96591,1.515691 3.02525,4.744762 4.57637,7.175712 l 2.82015,4.419907 4.53998,-7.179907 4.53994,-7.179912 h 3.24364 c 1.78407,0 3.2437,0.09214 3.2437,0.204758 0,0.112618 -2.808,4.656264 -6.24,10.096992 L 768,70.59411 v 8.623008 8.623009 h -3.12 -3.12 v -8.651569 z m 31.2,-10.068433 v -18.72 h 10.8 10.8 v 2.64 2.64 h -7.92 -7.92 v 4.56 4.56 h 6 6 v 2.88 2.88 h -6 -6 v 6.000001 6 h 8.16 8.16 v 2.64 2.64 H 804 792.96 Z m 36,0 v -18.72 h 8.53829 c 7.90185,0 8.69745,0.08051 10.67357,1.08 2.92603,1.479946 4.76289,4.243248 5.11987,7.702176 0.47885,4.639637 -1.53173,8.257085 -5.72218,10.295352 l -1.75445,0.853388 6.45245,8.480141 c 3.54883,4.664073 6.45245,8.603621 6.45245,8.754542 0,0.150922 -1.566,0.273336 -3.48,0.272031 l -3.48,-0.0024 -6.48,-8.625831 -6.48,-8.625826 -2.04,-0.01181 -2.04,-0.01176 v 8.640001 8.64 h -2.88 -2.88 z m 16.09339,-4.893451 c 1.36512,-0.62197 2.62661,-2.636827 2.62661,-4.195138 0,-0.536947 -0.62986,-1.681675 -1.39973,-2.543836 -1.39075,-1.557562 -1.43217,-1.568621 -6.48,-1.731264 L 834.72,55.592617 v 4.603695 4.603689 h 4.53739 c 2.49562,0 5.10379,-0.258053 5.796,-0.573451 z M 870.72,69.120001 v -18.72 h 2.88 2.88 v 18.72 18.720001 h -2.88 -2.88 z m 102.24,0 v -18.72 h 2.88 2.88 v 7.2 7.2 h 10.08 10.08 v -7.2 -7.2 h 2.88 2.88 v 18.72 18.720001 h -2.88 -2.88 v -8.64 -8.640001 H 988.8 978.72 v 8.640001 8.64 h -2.88 -2.88 z m 48,0 v -18.72 h 11.04 11.04 v 2.64 2.64 h -7.92 -7.92 v 4.56 4.56 h 6 6 v 2.88 2.88 h -6 -6 v 6.000001 6 h 8.16 8.16 v 2.64 2.64 h -11.28 -11.28 z"
       id="path3823"
       inkscape:connector-curvature="0" />
    <path
       style="fill:#221e1f;stroke-width:0.48000002"
       d="m 557.76,378.24001 v -18.72 h 2.06986 2.06985 l 6.93015,11.01186 c 3.81158,6.05652 7.1136,10.83028 7.3378,10.60835 0.22421,-0.22194 3.38813,-5.12327 7.0309,-10.89187 l 6.62323,-10.48834 2.20911,-0.1463 2.2091,-0.1463 v 18.7463 18.7463 h -2.88 -2.88 v -12.09135 -12.09134 l -5.19682,8.13134 -5.19681,8.13135 -2.12319,0.1337 -2.12318,0.1337 -5.04,-7.99012 -5.04,-7.99012 -0.1284,11.81642 -0.12835,11.81642 H 560.6316 557.76 Z m 48.48,18.58123 c 0,-0.0763 3.44549,-8.44633 7.65662,-18.6 l 7.65663,-18.46123 h 2.25413 2.25417 l 7.6092,18.41028 c 4.18507,10.12566 7.60925,18.49566 7.60925,18.6 0,0.10435 -1.3597,0.18972 -3.0216,0.18972 h -3.02155 l -1.92427,-4.68 -1.92428,-4.68 h -7.62422 -7.62427 l -1.88386,4.68 -1.88385,4.68 h -3.06605 c -1.68634,0 -3.06605,-0.0625 -3.06605,-0.13877 z m 22.56,-15.09497 c 0,-0.19456 -1.12234,-3.1026 -2.49403,-6.46232 l -2.49403,-6.10857 -2.25548,5.44509 c -3.47736,8.39502 -3.74313,7.47954 2.17119,7.47954 2.78981,0 5.07235,-0.15918 5.07235,-0.35374 z m 27.36,-0.84626 v -16.08 h -5.04 -5.04 v -2.64 -2.64 H 659.04 672 v 2.64 2.64 h -5.04 -5.04 v 16.08 16.08 h -2.88 -2.88 z m 28.8,-2.64 v -18.72 h 2.88 2.88 v 7.2 7.2 h 10.08 10.08 v -7.2 -7.2 h 2.88 2.88 v 18.72 18.72 h -2.88 -2.88 v -8.64 -8.64 H 700.8 690.72 v 8.64 8.64 h -2.88 -2.88 z m 48,0 v -18.72 H 744 755.04 v 2.64 2.64 h -8.16 -8.16 v 4.56 4.56 h 6.24 6.24 v 2.88 2.88 h -6.24 -6.24 v 6 6 h 8.4 8.4 v 2.64 2.64 h -11.28 -11.28 z m 36.48,0 v -18.72 h 2.09592 2.09592 l 6.90408,10.98543 c 3.79723,6.04198 7.04731,10.90083 7.22237,10.79745 0.17505,-0.10339 3.38054,-5.04683 7.12329,-10.98543 l 6.80506,-10.79745 h 2.11666 2.1167 v 18.72 18.72 h -2.8716 -2.87165 l -0.12835,-11.85462 -0.1284,-11.85461 -5.0459,7.89461 -5.04591,7.89462 -2.15409,0.12733 -2.1541,0.12733 -5.04,-8.02397 -5.04,-8.02396 -0.1284,11.85663 -0.12835,11.85664 H 772.3116 769.44 Z m 48.91805,17.64 c 0.22785,-0.594 3.59405,-8.748 7.48041,-18.12 3.88637,-9.372 7.17783,-17.32073 7.31434,-17.66383 0.16574,-0.41659 0.97853,-0.57605 2.44661,-0.48 l 2.1984,0.14383 7.56566,18.24 c 4.16112,10.032 7.57263,18.402 7.58112,18.6 0.009,0.198 -1.3391,0.36 -2.99462,0.36 h -3.01003 l -1.90997,-4.79576 -1.90997,-4.79575 -7.5719,-0.004 -7.57186,-0.004 -0.47741,1.2557 c -0.26261,0.69064 -1.14139,2.85064 -1.95293,4.8 l -1.47547,3.5443 h -3.06336 c -2.9795,0 -3.05198,-0.0296 -2.64902,-1.08 z m 20.36755,-18.96 c -1.19626,-2.838 -2.37691,-5.67596 -2.62373,-6.30657 -0.24681,-0.63062 -0.52886,-1.06262 -0.62683,-0.96 -0.23602,0.24717 -5.07504,11.85961 -5.07504,12.17874 0,0.1363 2.36266,0.24783 5.25029,0.24783 h 5.25029 z m 29.1144,3.96 v -16.08 h -5.04 -5.04 v -2.64 -2.64 h 13.2 13.2 v 2.64 2.64 h -5.28 -5.28 v 16.08 16.08 h -2.88 -2.88 z m 28.8,-2.64 v -18.72 h 2.88 2.88 v 18.72 18.72 h -2.88 -2.88 z m 22.08,0 v -18.72 h 2.88 2.88 l 0.005,7.56 0.005,7.56 7.54224,-7.5777 7.54229,-7.57769 3.71203,0.13769 3.71208,0.1377 -8.29939,8.63102 -8.29939,8.63102 8.16897,9.12898 c 4.4929,5.02094 8.48683,9.50698 8.87535,9.96898 0.66331,0.78873 0.47486,0.83997 -3.08799,0.83954 l -3.7944,-4.6e-4 -7.92,-8.90799 -7.92,-8.908 -0.13061,8.90845 -0.13056,8.90846 h -2.86944 -2.86939 v -18.72 z M 673.68,340.12368 c -5.5595,-1.37757 -9.89299,-4.95762 -12.34589,-10.1994 -2.05089,-4.38267 -2.40677,-10.48761 -0.87465,-15.00447 1.84622,-5.44295 5.12505,-9.18785 10.07865,-11.51127 2.3376,-1.09643 3.27591,-1.24853 7.70189,-1.24853 4.51666,0 5.34427,0.14062 7.97021,1.35422 3.70661,1.71305 7.40347,5.42577 9.16651,9.20578 1.23682,2.65174 1.34328,3.33731 1.34328,8.65009 0,5.55086 -0.0598,5.89162 -1.57469,8.96871 -3.88853,7.89877 -12.75878,11.94223 -21.46531,9.78487 z m 8.94139,-5.81707 c 3.11808,-1.06244 5.4253,-3.18961 7.10458,-6.55018 2.6136,-5.23021 1.84248,-11.64676 -1.91223,-15.91234 -3.85819,-4.38312 -9.7895,-5.58023 -15.00513,-3.02847 -4.36987,2.138 -6.91987,6.04087 -7.39901,11.32445 -0.8867,9.77891 8.18218,17.24324 17.21179,14.16654 z m 292.90359,6.02048 c -4.68946,-0.99116 -8.56148,-4.11477 -10.66748,-8.60557 -1.24723,-2.65963 -1.2588,-2.79022 -1.41705,-16.00151 l -0.15955,-13.32 h 2.87889 2.87895 l 0.1606,12.84 0.16066,12.84 1.31304,2.23359 c 3.21619,5.47104 11.40326,6.27177 15.81643,1.54693 2.31994,-2.4838 2.47426,-3.45264 2.68541,-16.86052 l 0.19843,-12.6 h 2.83335 2.83334 v 11.43184 c 0,15.35917 -0.65232,18.49079 -4.67597,22.44864 -3.48225,3.42532 -9.72456,5.12759 -14.83905,4.0466 z M 557.76,321.36001 v -18.96 h 2.88 2.88 v 18.96 18.96 h -2.88 -2.88 z m 22.08,0 v -18.96 h 2.15318 2.15324 l 10.92676,13.39066 10.92682,13.39067 0.12749,-13.39067 0.12744,-13.39066 H 609.12749 612 v 18.96 18.96 h -2.13206 -2.13207 L 596.78794,326.89239 585.84,313.46476 l -0.12749,13.42763 -0.12744,13.42762 H 582.71251 579.84 Z m 48.48,0 v -18.96 h 10.8 10.8 v 2.64 2.64 H 642 634.08 v 4.56 4.56 h 6.24 6.24 v 2.88 2.88 h -6.24 -6.24 v 8.88 8.88 h -2.88 -2.88 z m 82.56,0 v -18.96 l 7.8,0.003 c 8.94941,0.003 10.74571,0.36872 13.34429,2.71637 3.9659,3.58296 4.26326,10.0689 0.64517,14.07367 -0.90188,0.99831 -2.33948,2.09362 -3.19464,2.43403 -0.85517,0.34041 -1.62687,0.67169 -1.7149,0.73617 -0.088,0.0645 2.77397,4.0172 6.36,8.7838 3.58603,4.7666 6.52008,8.78056 6.52008,8.91991 0,0.13935 -1.566,0.24342 -3.48,0.23125 l -3.48,-0.0221 -6.67234,-8.85789 c -6.62932,-8.80101 -6.68424,-8.85807 -8.52,-8.85807 H 716.64 v 8.88 8.88 h -2.88 -2.88 z m 16.39219,-5.07864 c 0.53299,-0.28525 1.27771,-1.25725 1.6549,-2.16 0.59438,-1.42262 0.59438,-1.86011 0,-3.28273 -0.94517,-2.26209 -1.97338,-2.67531 -7.49381,-3.01163 L 716.64,307.53499 v 4.63251 4.63251 h 4.83154 c 2.65737,0 5.26766,-0.23339 5.80065,-0.51864 z m 24.88781,5.05234 v -18.9863 l 2.26013,0.1463 2.26008,0.1463 6.98121,11.05257 6.98127,11.05257 6.97723,-11.05257 6.97718,-11.05257 2.26148,-0.1463 2.26142,-0.1463 v 18.9863 18.9863 h -2.87189 -2.87189 l -0.12811,-12.233 -0.12811,-12.233 -5.2007,8.153 -5.20071,8.153 h -2.07629 -2.07633 l -5.20301,-8.12732 -5.20296,-8.12731 -0.12811,12.20731 -0.12811,12.20732 H 755.03189 752.16 Z m 48.978,18.4092 c 0.0101,-0.3426 3.42451,-8.8309 7.58803,-18.8629 l 7.57008,-18.24 2.15578,-0.14238 2.15582,-0.14237 7.50783,18.14237 c 4.12929,9.97831 7.65163,18.52038 7.8275,18.98238 0.28392,0.74605 -0.0254,0.84 -2.76658,0.84 h -3.08625 l -1.9213,-4.68 -1.92129,-4.68 -7.7052,-0.13161 -7.70516,-0.13161 -1.88654,4.69161 -1.88654,4.69161 -2.97212,0.1429 c -2.19614,0.1056 -2.96736,-0.0197 -2.95406,-0.48 z m 22.542,-14.95423 c 0,-0.0942 -1.17077,-2.95622 -2.60174,-6.36 -2.36184,-5.6181 -2.64557,-6.07804 -3.07738,-4.98867 -0.2616,0.66 -1.44206,3.522 -2.62325,6.36 l -2.14761,5.16 h 5.22499 c 2.87376,0 5.22499,-0.0771 5.22499,-0.17133 z m 27.36,-0.78867 v -16.32 H 846 840.96 v -2.64 -2.64 h 12.96 12.96 v 2.64 2.64 h -5.04 -5.04 v 16.32 16.32 h -2.88 -2.88 z m 28.32,-2.64 v -18.96 h 2.88 2.88 v 18.96 18.96 h -2.88 -2.88 z m 22.56,0 v -18.96 h 2.88 2.88 l 0.0245,7.56 0.0245,7.56 7.29576,-7.56454 7.29571,-7.56454 3.72,0.004 c 2.046,0.002 3.72,0.17466 3.72,0.38258 0,0.20793 -1.09757,1.44993 -2.43907,2.76 -1.3415,1.31008 -5.01331,5.10968 -8.15962,8.44355 l -5.72049,6.06159 8.87957,9.91226 c 4.8838,5.45175 8.87961,10.01403 8.87961,10.13841 0,0.12439 -1.674,0.21584 -3.72,0.20323 l -3.72,-0.0229 -7.92,-8.92868 -7.92,-8.92867 -0.13061,8.95159 -0.13056,8.9516 h -2.86944 -2.86939 v -18.96 z m 108.96,0 v -18.96 h 2.1063 2.1064 l 10.7336,13.16426 10.7337,13.16426 0.1276,-13.16426 0.1276,-13.16426 h 2.8724 2.8724 v 18.96 18.96 l -2.04,-0.0346 -2.04,-0.0346 -10.92,-13.4517 -10.92,-13.4517 v 13.48625 13.48624 h -2.88 -2.88 v -18.96 z m 48.48,0.0605 v -19.02046 h 7.4164 c 8.051,0 11.3212,0.48403 14.6731,2.17179 2.8659,1.44307 6.4674,5.35686 8.0641,8.76353 1.1572,2.46903 1.2842,3.27495 1.2644,8.02468 -0.019,4.64159 -0.1726,5.60645 -1.2671,7.98002 -1.416,3.07093 -4.1357,6.28484 -6.6746,7.88756 -3.3338,2.10456 -6.4154,2.70628 -15.1963,2.96725 l -8.28,0.24609 z m 18.7714,11.62207 c 5.6153,-2.60091 8.387,-9.3369 6.5053,-15.80992 -0.9027,-3.10497 -3.4757,-6.30568 -6.1769,-7.68371 -1.7631,-0.89947 -7.7065,-1.83811 -11.7798,-1.86037 l -1.56,-0.009 v 13.49309 13.49311 l 5.16,-0.18856 c 4.2919,-0.15683 5.6128,-0.39826 7.8514,-1.43511 z M 0,126 V 0 H 251.76 503.52 V 126 252 H 251.76 0 Z m 140.33753,74.63285 c 15.38248,-2.97682 27.66797,-9.55147 38.96175,-20.8506 11.15168,-11.15697 17.57101,-22.79618 20.96905,-38.02006 1.45784,-6.53138 1.5753,-24.1011 0.20327,-30.40219 -2.1993,-10.10027 -5.8982,-19.056315 -11.05888,-26.776515 -4.99212,-7.468051 -4.0174,-7.152787 -8.45992,-2.736327 -2.10804,2.095676 -3.8328,3.998002 -3.8328,4.227389 0,0.229388 1.16455,2.178452 2.58789,4.331261 4.80767,7.271607 8.30116,15.725052 9.94897,24.074192 1.01965,5.16636 0.88682,19.12672 -0.23046,24.22057 -2.85875,13.03354 -8.66322,23.75929 -17.81328,32.91611 -12.65121,12.66056 -28.29553,19.1344 -46.09312,19.07399 -14.22172,-0.0483 -25.600498,-3.94468 -38.921251,-13.32775 -0.517992,-0.36487 -1.600647,0.44625 -4.602917,3.44852 -4.602451,4.60245 -4.705934,4.08963 1.688376,8.36672 10.021867,6.70352 21.847482,11.01382 34.155792,12.44939 5.41693,0.6318 16.66188,0.13462 22.49753,-0.9947 z M 265.92,139.44 V 76.800002 h -5.52 -5.52 V 139.44 202.08 h 5.52 5.52 z m 82.56,-13.2 V 50.400001 h -5.52 -5.52 V 126.24 202.08 h 5.52 5.52 z m 104.64,0 V 50.400001 h -5.52 -5.52 V 126.24 202.08 h 5.52 5.52 z M 71.149382,170.05126 c 2.051837,-2.0398 3.730618,-3.84274 3.730618,-4.00652 0,-0.16378 -1.221638,-2.11285 -2.714746,-4.33126 -4.467422,-6.63754 -7.734288,-14.3628 -9.520526,-22.51348 -1.243162,-5.67259 -1.496496,-17.11161 -0.511651,-23.10294 4.378061,-26.634073 24.48971,-47.652639 51.187663,-53.495915 5.32354,-1.165147 16.46975,-1.420829 22.04497,-0.505694 9.69354,1.591133 18.38104,4.958626 26.18057,10.148251 2.17916,1.449965 4.13994,2.636299 4.3573,2.636299 0.48815,0 7.85642,-7.283548 7.85642,-7.766088 0,-0.715209 -10.99673,-7.639056 -15.37608,-9.681206 C 153.22722,55.02807 146.62375,52.831019 140.64,51.5291 137.36339,50.816195 134.48064,50.641259 126,50.640697 114.157,50.639737 110.1013,51.265542 100.67158,54.547811 77.324021,62.674566 59.461166,81.90701 52.80913,106.08 c -1.755068,6.37778 -2.486861,12.34381 -2.472836,20.16 0.02309,12.86823 2.538351,23.42219 8.205927,34.43186 2.743454,5.32936 7.806633,13.08814 8.540976,13.08814 0.18456,0 2.014344,-1.66893 4.066185,-3.70874 z M 426.72,126 v -5.52 h -31.2 -31.2 v 5.52 5.52 h 31.2 31.2 z M 310.56,55.920001 v -5.52 H 260.4 210.24 v 5.52 5.52 h 50.16 50.16 z M 645.13162,201.82144 c -3.67796,-1.03163 -6.21082,-2.637 -9.03384,-5.72583 -2.89844,-3.17137 -4.39772,-6.80507 -4.75954,-11.53561 -0.92059,-12.03596 8.44334,-21.61902 20.26176,-20.73583 4.30008,0.32134 8.2681,1.81946 10.79472,4.07553 l 1.99382,1.7803 -1.93502,1.87862 -1.93502,1.87862 -1.81925,-1.25641 c -4.41255,-3.0474 -9.47328,-3.63765 -13.82275,-1.6122 -8.58903,3.99972 -10.38576,16.58369 -3.263,22.85341 4.11879,3.6255 10.2985,4.46994 15.06044,2.05796 l 2.60606,-1.32 0.1368,-4.92 0.1368,-4.92 h -5.2968 -5.2968 v -2.64 -2.64 h 8.4 8.4 v 8.3626 8.3626 l -2.04,1.77705 c -3.44654,3.00227 -7.46506,4.6176 -12.01939,4.83141 -2.60631,0.12236 -4.83058,-0.0646 -6.56899,-0.55222 z m 125.50838,0.0959 c -3.80021,-1.25873 -8.4,-4.42911 -8.4,-5.78961 0,-0.31508 0.86578,-1.41825 1.92389,-2.45151 l 1.92393,-1.87864 0.7501,1.07095 c 1.34194,1.91588 5.46216,3.922 8.06544,3.927 5.96414,0.0115 8.58168,-5.52426 4.2863,-9.06488 -0.93278,-0.76888 -3.65822,-2.2113 -6.05654,-3.20539 -3.05078,-1.26452 -4.96685,-2.41367 -6.37886,-3.82571 -4.85732,-4.85732 -3.48634,-12.33957 2.88028,-15.71949 3.97983,-2.1128 12.66188,-0.97165 15.36941,2.02011 0.69139,0.76399 0.61488,0.99197 -0.94353,2.81267 l -1.69594,1.9813 -2.21371,-1.17706 c -3.90149,-2.07442 -8.43279,-1.30984 -9.98103,1.6841 -1.47081,2.84422 0.24077,4.69582 7.45215,8.06173 5.58206,2.60543 8.30952,4.92952 9.0923,7.74754 1.5145,5.45215 -0.65045,10.64361 -5.46873,13.11374 -2.43687,1.24927 -7.85698,1.60352 -10.60546,0.69315 z m 82.0237,0.21533 c -4.61429,-1.18829 -8.4696,-4.37732 -10.4378,-8.63388 -0.95764,-2.07114 -1.03612,-3.12091 -1.17931,-15.77876 l -0.15341,-13.56 h 2.87909 2.87904 l 0.15437,13.08 c 0.16603,14.07123 0.2495,14.56545 2.87525,17.01709 4.84344,4.52229 13.9416,2.63157 16.20854,-3.36833 0.31378,-0.83045 0.51053,-6.24182 0.51053,-14.04 V 164.16 h 2.90702 2.90703 l -0.14703,13.8 c -0.14078,13.21615 -0.19305,13.89342 -1.23494,16.00794 -2.48837,5.0501 -7.40914,8.16467 -13.28582,8.40916 -1.86245,0.0775 -4.0596,-0.0325 -4.88256,-0.24446 z m 86.78481,-0.29153 c -9.46392,-2.66151 -15.22473,-11.96852 -13.57848,-21.93694 0.74995,-4.54125 2.77546,-8.34792 6.01925,-11.31259 3.80443,-3.47702 6.98794,-4.634 12.75072,-4.634 5.40715,0 8.84534,1.12998 11.99472,3.94212 l 1.99382,1.7803 -1.91592,1.85998 -1.91596,1.85999 -1.44346,-1.02784 c -6.12422,-4.36083 -13.88558,-3.82155 -18.3611,1.27576 -3.75735,4.27941 -4.63157,10.6055 -2.16284,15.65137 1.5445,3.15684 4.34602,5.71675 7.3922,6.75469 3.09201,1.05356 7.5358,0.94393 10.1699,-0.25088 3.70474,-1.68045 3.84864,-1.9421 3.84864,-6.99746 V 184.32 h -5.52 -5.52 v -2.64 -2.64 h 8.4 8.4 v 8.34415 8.34415 l -1.98077,1.78951 c -3.26318,2.94806 -7.47053,4.63951 -12.07862,4.85585 -2.56959,0.12064 -4.82832,-0.0647 -6.4921,-0.53255 z M 557.76,183.08113 v -18.99887 l 8.52,0.16099 c 7.75738,0.14659 8.70254,0.25833 10.55947,1.24836 6.80755,3.62951 6.71319,14.12105 -0.15859,17.62839 -1.0345,0.528 -1.9655,1.00864 -2.06894,1.06808 -0.10344,0.0594 2.60808,3.83944 6.02563,8.4 3.41755,4.56056 6.37694,8.56192 6.57643,8.89192 0.2773,0.45877 -0.47918,0.6 -3.21374,0.6 h -3.57639 l -6.64195,-8.88 c -6.564,-8.77575 -6.66322,-8.88 -8.45194,-8.88 H 563.52 v 8.88 8.88 h -2.88 -2.88 z m 14.98584,-4.54246 c 2.19245,-0.6089 3.25416,-2.03233 3.25416,-4.3628 0,-1.3878 -0.31925,-2.03915 -1.47682,-3.0132 -1.37169,-1.15419 -1.81598,-1.24267 -6.24,-1.24267 H 563.52 v 4.56 4.56 l 3.72,-0.003 c 2.046,-0.001 4.52362,-0.22586 5.50584,-0.49865 z M 599.04,183.12 v -18.96 h 10.8 10.8 v 2.88 2.88 h -7.92 -7.92 v 4.56 4.56 h 6.24 6.24 v 2.64 2.64 h -6.24 -6.24 v 6 6 h 8.4 8.4 v 2.88 2.88 h -11.28 -11.28 z m 81.6,0 v -18.96 h 11.04 11.04 v 2.88 2.88 h -8.16 -8.16 v 4.56 4.56 h 6.24 6.24 v 2.64 2.64 h -6.24 -6.24 v 6 6 h 8.4 8.4 v 2.88 2.88 h -11.28 -11.28 z m 36.48,0 v -18.96 l 2.04,0.0215 2.04,0.0215 10.8,13.29593 10.8,13.29593 0.12758,-13.31744 0.12759,-13.31744 h 2.87241 2.87242 v 18.96 18.96 h -2.07696 -2.07696 L 733.88304,188.86624 723.12,175.65249 l -0.12758,13.21375 -0.12759,13.21375 H 719.99242 717.12 v -18.96 z m 84,0.0434 v -19.00341 h 7.35288 c 5.15074,0 8.08176,0.21645 9.78662,0.72274 5.90405,1.75331 8.65973,9.19317 5.26882,14.22493 l -1.06344,1.578 1.88261,1.69716 c 2.48165,2.23726 3.62885,4.85564 3.64195,8.31259 0.0173,4.49244 -2.06107,8.02412 -5.92982,10.07727 -1.80432,0.95756 -2.819,1.06579 -11.45962,1.22235 l -9.48,0.17177 z m 19.47806,11.12364 c 1.84052,-2.00981 2.15876,-4.21532 0.94647,-6.55961 -1.33195,-2.57573 -2.83392,-3.1296 -9.02453,-3.3279 l -5.64,-0.18065 v 6.0897 6.0897 l 6.03806,-0.15914 6.03812,-0.15915 z M 816,178.41291 c 1.18286,-0.40338 1.93771,-1.10024 2.55101,-2.35504 0.81197,-1.66135 0.81849,-1.89271 0.0969,-3.4135 -1.05326,-2.21958 -2.43744,-2.72437 -7.47048,-2.72437 H 806.88 v 4.56 4.56 l 3.72,-0.0271 c 2.046,-0.0149 4.476,-0.2849 5.4,-0.6 z m 72.48,4.70709 v -18.96 l 7.56,0.003 c 4.158,10e-4 8.424,0.23868 9.48,0.52714 6.9925,1.91004 9.55147,10.58909 4.76938,16.17587 -0.88594,1.03503 -2.32148,2.16495 -3.19008,2.51094 -0.86861,0.34598 -1.66392,0.69441 -1.76736,0.77429 -0.10344,0.0799 2.60808,3.8766 6.02563,8.43716 3.41755,4.56056 6.37694,8.56193 6.57643,8.89193 0.2772,0.45862 -0.47458,0.6 -3.1907,0.6 h -3.55335 l -6.67497,-8.87992 c -6.58066,-8.75444 -6.70042,-8.87991 -8.47498,-8.88 l -1.8,-2.9e-4 v 8.88 8.88 h -2.88 -2.88 z m 14.98584,-4.58133 c 2.17709,-0.60463 3.25915,-2.03638 3.2389,-4.28547 -0.0305,-3.37789 -1.76621,-4.3332 -7.8732,-4.3332 H 894.24 v 4.56 4.56 l 3.72,-0.003 c 2.046,-0.001 4.52362,-0.22586 5.50584,-0.49865 z M 637.39627,144.55688 c -5.0987,-1.68288 -9.17304,-5.30241 -11.40417,-10.13114 -1.0908,-2.36078 -1.23404,-3.29723 -1.25189,-8.18574 -0.0192,-5.22596 0.061,-5.69132 1.5035,-8.73634 4.31784,-9.1144 14.63923,-13.11301 24.41083,-9.457 2.70096,1.01058 6.46546,3.58096 6.46546,4.41463 0,0.29603 -0.77386,1.33073 -1.71965,2.29933 l -1.71965,1.76109 -2.39496,-1.61167 c -3.03408,-2.04181 -5.69193,-2.76087 -9.08049,-2.45666 -7.32255,0.65739 -12.47232,7.18709 -11.84376,15.0174 0.57672,7.18455 6.08894,12.26668 13.38595,12.34147 3.27062,0.0335 5.12702,-0.64949 8.46859,-3.11578 l 2.53603,-1.87176 1.90397,1.50798 c 1.04717,0.82939 1.90397,1.79937 1.90397,2.15551 0,0.97923 -3.78869,3.88078 -6.99355,5.35598 -3.76541,1.73323 -10.1112,2.05239 -14.17018,0.7127 z M 795.6,144.77169 c -2.73533,-0.86062 -3.93442,-1.57771 -6.32909,-3.78507 l -2.11061,-1.94548 1.79727,-1.84057 c 0.98851,-1.01231 2.03976,-1.84057 2.33616,-1.84057 0.2964,0 1.06257,0.56102 1.70261,1.24672 3.99528,4.28042 11.09438,4.26655 13.11648,-0.0256 1.58481,-3.3639 -0.59333,-6.06781 -7.04074,-8.74022 -5.09198,-2.11059 -8.71325,-5.0798 -9.45571,-7.75306 -1.46127,-5.26112 0.4907,-9.61559 5.47824,-12.2211 1.46611,-0.7659 2.838,-1.02094 5.56833,-1.03518 3.15015,-0.0164 4.04271,0.18777 6.84,1.56487 1.76938,0.87107 3.21706,1.85823 3.21706,2.19371 0,0.33547 -0.702,1.40764 -1.56,2.38259 l -1.56,1.77264 -2.36136,-1.21267 c -3.7645,-1.93325 -7.72354,-1.40121 -9.6095,1.29139 -2.02085,2.88517 -0.39168,4.8241 7.14652,8.50526 6.68223,3.26317 8.48909,4.93879 9.39428,8.71208 0.91152,3.79972 -0.0636,7.2602 -2.81885,10.00368 -1.34871,1.34289 -3.01248,2.45354 -4.20677,2.80821 -2.49898,0.74211 -7.05,0.7032 -9.54432,-0.0816 z m 40.96147,-0.22559 c -1.4952,-0.49311 -3.4392,-1.3446 -4.32,-1.8922 -12.01013,-7.46684 -11.49485,-27.01873 0.8845,-33.5603 7.07405,-3.73812 16.02936,-2.99752 21.35448,1.76601 l 2.07955,1.86023 -1.8877,1.95015 -1.88774,1.95015 -1.64894,-1.25772 c -4.36637,-3.33039 -9.7056,-3.92025 -14.37308,-1.58788 -4.70356,2.35041 -7.29393,6.60857 -7.31198,12.01996 -0.0202,5.95622 2.53051,10.30971 7.44984,12.71651 4.85328,2.37449 11.42683,1.39204 14.89296,-2.22584 0.74045,-0.77284 1.57584,-1.39618 1.85645,-1.38518 0.28061,0.011 1.36041,0.77066 2.39961,1.68817 l 1.88943,1.6682 -1.88943,1.9386 c -1.0392,1.06623 -3.27144,2.61998 -4.9606,3.45275 -2.64951,1.30627 -3.67095,1.53342 -7.44,1.65455 -3.27413,0.10522 -5.04999,-0.0842 -7.08735,-0.75616 z m 199.63113,0.3986 c -7.4437,-1.86474 -13.0968,-8.93678 -13.653,-17.07984 -0.7338,-10.74323 5.4358,-19.02981 15.5716,-20.91475 5.9475,-1.10605 12.6274,1.07754 16.737,5.47114 8.9679,9.58736 6.1366,25.80421 -5.452,31.22715 -2.6971,1.2621 -3.8831,1.5263 -7.3079,1.62786 -2.2486,0.0667 -4.9017,-0.0825 -5.8957,-0.33156 z m 10.0344,-5.99715 c 2.1315,-0.86884 5.3388,-3.8968 6.5616,-6.19481 0.8538,-1.6044 1.0402,-2.76616 1.0453,-6.51274 0.01,-3.92065 -0.1616,-4.88835 -1.1899,-6.90187 -4.9294,-9.65234 -18.6481,-9.16571 -23.0578,0.81791 -2.1332,4.82944 -1.596,10.4377 1.3953,14.56707 3.3344,4.60293 9.8724,6.41458 15.2455,4.22444 z m 39.891,5.97133 c -10.2413,-2.41371 -16.3691,-13.32895 -13.5528,-24.14144 0.9829,-3.77357 2.688,-6.53107 5.7938,-9.3696 6.7603,-6.1785 17.9432,-6.28755 25.1244,-0.245 l 1.5402,1.29602 -2.0201,2.05831 -2.0201,2.05832 -1.7317,-1.38871 c -6.6027,-5.29488 -16.2743,-3.02707 -20.0561,4.70282 -1.1264,2.30218 -1.3364,3.3259 -1.3025,6.34763 0.048,4.25579 0.8706,6.4037 3.5779,9.3408 4.9226,5.34036 13.2106,5.69845 18.7767,0.81126 0.9455,-0.83011 1.9181,-1.50929 2.1615,-1.50929 0.2433,0 1.1816,0.76258 2.085,1.69462 1.9462,2.00798 1.8012,2.43792 -1.7379,5.1533 -4.1496,3.18386 -11.0518,4.50759 -16.6383,3.19096 z m 85.7216,-0.36739 c -2.5822,-0.89234 -5.5739,-2.85926 -6.9756,-4.58618 -0.7856,-0.96782 -0.7506,-1.07243 0.9374,-2.80531 0.9644,-0.99 1.9959,-1.8 2.2923,-1.8 0.2964,0 1.0626,0.56102 1.7026,1.24672 2.3564,2.52447 6.3244,3.87931 9.0476,3.08917 2.6922,-0.78117 4.3561,-2.72531 4.3561,-5.08984 0,-1.71949 -0.2635,-2.25162 -1.8,-3.6354 -0.99,-0.89158 -3.7577,-2.43103 -6.1505,-3.42099 -7.0325,-2.90957 -9.6756,-6.24926 -9.2271,-11.65849 0.2774,-3.34417 2.0402,-5.89404 5.3175,-7.6914 2.1203,-1.16281 3.0505,-1.37232 6.123,-1.37912 3.1378,-0.007 4.0537,0.20407 6.84,1.57575 1.7694,0.87107 3.2139,1.84022 3.2099,2.15368 0,0.31346 -0.7059,1.38398 -1.56,2.37895 l -1.5528,1.80903 -2.3614,-1.20903 c -3.7671,-1.92881 -7.725,-1.39542 -9.6095,1.29503 -2.0375,2.90893 -0.3432,4.92605 7.1692,8.53511 6.7152,3.22611 8.5194,4.92252 9.3489,8.79014 1.576,7.34854 -3.5676,13.27753 -11.5072,13.26448 -1.7358,-0.003 -4.2204,-0.38542 -5.6004,-0.8623 z m 41.5219,-0.005 c -3.4551,-1.13946 -5.4115,-2.36237 -7.9299,-4.95697 -6.8357,-7.04268 -6.9272,-19.62289 -0.1956,-26.92578 6.5435,-7.09894 19.1491,-7.97194 26.0444,-1.80373 l 2.0796,1.86022 -1.8877,1.95015 -1.8877,1.95015 -1.649,-1.25771 c -7.5553,-5.76275 -17.6468,-2.9455 -21.0119,5.86594 -1.22,3.19424 -0.7784,8.98666 0.9038,11.85711 2.4901,4.2491 6.7143,6.70535 11.5796,6.73321 3.4406,0.0197 7.1485,-1.40656 9.1863,-3.53352 0.7404,-0.77284 1.5758,-1.39932 1.8564,-1.39217 0.2806,0.007 1.3418,0.78587 2.3583,1.73052 l 1.848,1.71753 -1.848,1.89626 c -1.0165,1.04295 -3.2301,2.57763 -4.9193,3.41041 -2.6495,1.30627 -3.6709,1.53342 -7.44,1.65454 -3.2741,0.10522 -5.05,-0.0842 -7.0873,-0.75616 z m 91.8569,0.013 c -4.8096,-1.71492 -8.1759,-5.41388 -9.4465,-10.37997 -0.5612,-2.19349 -0.7319,-5.69256 -0.7319,-15 V 107.04 h 2.88 2.88 v 11.49638 c 0,12.52211 0.39,15.59253 2.2632,17.81868 3.6389,4.32462 11.5404,4.64742 15.0789,0.61602 2.2353,-2.54671 2.3379,-3.29032 2.3379,-16.94724 V 107.04 h 3.12 3.12 v 11.16 c 0,15.20329 -0.6182,18.39473 -4.3521,22.64742 -3.5274,4.01744 -11.4676,5.73633 -17.1459,3.7117 z M 563.52,128.88 V 112.8 h -5.04 -5.04 v -2.88 -2.88 h 13.2 13.2 v 2.88 2.88 h -5.28 -5.28 v 16.08 16.08 h -2.88 -2.88 z m 28.8,-2.88 v -18.96 h 10.8 10.8 v 2.88 2.88 H 606 598.08 v 4.56 4.56 h 6 6 v 2.64 2.64 h -6 -6 v 6 6 h 8.16 8.16 v 2.88 2.88 h -11.04 -11.04 z m 79.2,0 v -18.96 h 2.88 2.88 v 7.44 7.44 h 10.08 10.08 v -7.44 -7.44 h 2.88 2.88 V 126 144.96 h -2.88 -2.88 v -8.88 -8.88 h -10.08 -10.08 v 8.88 8.88 h -2.88 -2.88 z m 48.48,0 v -18.96 l 2.04,0.0279 2.04,0.0279 10.92,13.4604 10.92,13.4604 v -13.48833 -13.48833 h 2.88 2.88 v 18.96 18.96 h -2.09866 -2.09865 L 736.74134,131.78378 726,118.60756 l -0.12758,13.17622 -0.12759,13.17623 H 722.87242 720 v -18.96 z m 48.48,0 v -18.96 h 2.88 2.88 V 126 144.96 h -2.88 -2.88 z m 102.24,0 v -18.96 h 2.88 2.88 v 7.44 7.44 h 10.08 10.08 v -7.44 -7.44 h 2.88 2.88 V 126 144.96 h -2.88 -2.88 v -8.88 -8.88 h -10.08 -10.08 v 8.88 8.88 h -2.88 -2.88 z m 48,0 v -18.96 h 11.04 11.04 v 2.88 2.88 h -7.92 -7.92 v 4.56 4.56 h 6 6 v 2.64 2.64 h -6 -6 v 6 6 h 8.16 8.16 v 2.88 2.88 H 930 918.72 Z m 58.08,0 v -18.96 h 2.88 2.88 v 7.44 7.44 h 10.32 10.32 v -7.44 -7.44 h 2.88 2.88 V 126 144.96 h -2.88 -2.88 v -8.88 -8.88 h -10.32 -10.32 v 8.88 8.88 h -2.88 -2.88 z m 142.08,0 v -18.96 h 2.88 2.88 v 7.44 7.44 h 10.08 10.08 v -7.44 -7.44 h 3.12 3.12 V 126 144.96 h -3.12 -3.12 v -8.88 -8.88 h -10.08 -10.08 v 8.88 8.88 h -2.88 -2.88 z m 128.64,0 v -18.96 h 2.88 2.88 v 7.44 7.44 h 10.08 10.08 v -7.44 -7.44 h 2.88 2.88 V 126 144.96 h -2.88 -2.88 v -8.88 -8.88 h -10.08 -10.08 v 8.88 8.88 h -2.88 -2.88 z m 95.04,0 v -18.96 h 2.88 2.88 v 16.08 16.08 h 8.16 8.16 v 2.88 2.88 h -11.04 -11.04 z m 35.04,0 v -18.96 h 10.8 10.8 v 2.88 2.88 h -7.92 -7.92 v 4.56 4.56 h 6.24 6.24 v 2.64 2.64 h -6.24 -6.24 v 6 6 h 8.16 8.16 v 2.88 2.88 h -11.04 -11.04 z M 567.08314,87.467949 c -5.09645,-1.807253 -8.75141,-5.448418 -11.02872,-10.987133 -1.5206,-3.698155 -1.63162,-10.201671 -0.24308,-14.237549 2.64821,-7.697098 9.12615,-12.345058 17.28,-12.398535 6.44957,-0.04229 10.20552,1.545869 14.33088,6.059664 3.56069,3.895978 4.6273,6.942231 4.6273,13.215605 0,6.381581 -1.0656,9.356132 -4.79486,13.384148 -3.7286,4.027368 -7.17879,5.518589 -13.17466,5.694307 -3.4369,0.100723 -5.16019,-0.07919 -6.99686,-0.730507 z m 10.17072,-5.137133 c 3.06024,-0.908803 6.11544,-3.533198 7.75862,-6.664647 1.11048,-2.116344 1.29403,-3.044913 1.29403,-6.546168 0,-3.501254 -0.18355,-4.429824 -1.29403,-6.546168 -5.07518,-9.671914 -17.90261,-9.671006 -23.06971,0.0014 -1.52655,2.857719 -1.53907,10.2186 -0.0221,13.024536 1.57469,2.912693 4.55966,5.529989 7.44225,6.525538 3.13013,1.081032 4.79602,1.124371 7.89096,0.205277 z m 32.82873,5.188551 c -2.36165,-0.826268 -5.47406,-2.820529 -6.93528,-4.44373 -0.9324,-1.035763 -0.93206,-1.036747 1.02312,-2.991965 l 1.95586,-1.955861 2.47925,1.959711 c 2.31168,1.827268 4.90934,2.943499 6.86476,2.949801 1.55564,0.005 4.63061,-1.515638 5.38114,-2.661134 1.07222,-1.636378 0.93768,-4.16628 -0.30557,-5.746824 -0.63369,-0.805604 -3.07464,-2.283836 -6.12,-3.706253 -2.78621,-1.301386 -5.79139,-2.916399 -6.67809,-3.588912 -3.024,-2.29345 -4.33421,-7.652549 -2.765,-11.309616 0.87077,-2.029393 3.43162,-4.421713 5.78319,-5.402607 2.38848,-0.996307 7.51891,-1.008499 10.26576,-0.02438 2.19782,0.787402 4.88827,2.501942 4.88827,3.115138 0,0.202041 -0.702,1.176129 -1.56,2.164651 l -1.56,1.797302 -2.64,-1.232644 c -1.452,-0.677952 -3.24096,-1.234753 -3.97541,-1.23733 -1.90435,-0.0067 -4.40789,1.146518 -5.32185,2.451408 -2.01975,2.88359 -0.31892,5.08381 6.3683,8.238163 6.17285,2.911738 7.48747,3.855116 9.02971,6.47977 0.95583,1.626682 1.20327,2.689445 1.1893,5.108136 -0.0274,4.721122 -2.36899,8.394063 -6.43464,10.09237 -2.30885,0.964474 -8.10202,0.935237 -10.93282,-0.05517 z M 898.08,87.871139 c -2.27602,-0.694838 -5.18141,-2.402625 -6.99101,-4.10927 l -1.81478,-1.711594 1.86029,-1.905134 c 1.02316,-1.047826 2.05334,-1.905139 2.28926,-1.905139 0.23592,0 1.36728,0.825979 2.51419,1.83551 1.98576,1.747954 4.79703,2.976806 6.75773,2.953949 2.02152,-0.02357 5.01278,-1.860389 5.69722,-3.498447 1.43731,-3.439963 -0.12634,-5.387736 -6.88431,-8.575526 -6.11649,-2.885208 -7.89993,-4.213483 -9.16445,-6.825576 -2.46153,-5.084928 0.0302,-11.237957 5.47205,-13.511079 4.11403,-1.718563 11.98546,-0.513168 14.45285,2.213256 0.75245,0.831427 0.75643,0.99024 0.0505,1.995614 -2.21529,3.155069 -1.99876,3.062722 -4.38566,1.870666 -4.11341,-2.054333 -7.85957,-1.764763 -9.84643,0.761112 -2.37159,3.015019 -0.71775,5.074493 7.21041,8.978856 6.79445,3.346037 8.31984,4.832482 9.17842,8.943941 1.04304,4.994933 -1.4447,9.924173 -6.07632,12.039677 -2.01499,0.920362 -7.93291,1.17794 -10.32,0.449184 z m 41.04,-0.198163 c -6.21773,-2.055778 -10.40179,-6.117485 -12.40123,-12.038482 -1.05903,-3.136277 -1.06253,-9.875707 -0.007,-13.028986 2.97432,-8.883259 11.06136,-13.798949 20.81021,-12.649469 3.32414,0.391949 8.28768,2.61852 10.07251,4.51838 l 1.16093,1.235765 -1.96776,1.967774 -1.96776,1.96777 -1.90373,-1.529866 c -6.34171,-5.096352 -15.35304,-3.155333 -19.70299,4.243992 -1.15944,1.972181 -1.29346,2.672626 -1.29346,6.760147 0,4.07629 0.13546,4.789128 1.27718,6.720001 2.71671,4.59454 6.73157,6.927192 11.92282,6.927192 3.5737,0 6.5017,-1.139482 9.02962,-3.514023 0.87432,-0.821241 1.74844,-1.493169 1.9426,-1.493169 0.19412,0 1.1929,0.860164 2.21948,1.91148 l 1.86648,1.91148 -2.09544,1.93452 c -3.59252,3.316584 -6.67503,4.487381 -12.24274,4.650062 -3.05851,0.08936 -5.49658,-0.09007 -6.72,-0.494568 z M 646.56,71.760001 v -16.08 h -5.04 -5.04 v -2.64 -2.64 h 12.96 12.96 v 2.64 2.64 h -5.04 -5.04 v 16.08 16.080001 h -2.88 -2.88 z m 28.32,-2.64 v -18.72 l 8.28,0.01056 c 7.02173,0.0089 8.57179,0.145205 10.2,0.896678 5.0135,2.313893 6.93394,8.137229 4.36003,13.221265 l -1.15992,2.291184 1.66824,1.46472 c 5.99784,5.266185 4.72944,15.077573 -2.37696,18.386261 -2.36155,1.099526 -2.97288,1.160218 -11.73139,1.164662 l -9.24,0.0047 z m 18.41102,12.329333 c 3.87879,-2.54148 3.75888,-8.137104 -0.21844,-10.193865 -0.94666,-0.489519 -2.98661,-0.695468 -6.88872,-0.695468 H 680.64 v 6.059161 6.059164 l 5.6977,-0.203145 c 4.31476,-0.153835 6.00249,-0.402831 6.95332,-1.025847 z M 690.49339,64.22655 c 1.36512,-0.62197 2.62661,-2.636827 2.62661,-4.195138 0,-0.536947 -0.62995,-1.681675 -1.39987,-2.543836 -1.38096,-1.546455 -1.46506,-1.569797 -6.24,-1.732556 L 680.64,55.590044 v 4.604976 4.604981 h 4.29739 c 2.36362,0 4.86379,-0.258053 5.556,-0.573451 z m 20.49759,22.760905 c 0.12969,-0.495879 3.55521,-8.930919 7.61227,-18.744529 l 7.37649,-17.842925 h 2.19975 2.19969 l 5.10183,12.36 c 2.80598,6.798 6.29544,15.231706 7.75435,18.741567 l 2.65258,6.381567 -3.19589,-0.141567 -3.19589,-0.141566 -1.88203,-4.68 -1.88203,-4.68 h -7.5721 -7.5721 l -1.88188,4.68 -1.88184,4.68 -3.03452,0.144523 c -2.76801,0.131832 -3.01377,0.06535 -2.79868,-0.75707 z m 22.369,-14.458575 C 732.24384,69.521397 728.3411,60.484806 728.16,60.488507 c -0.132,0.0029 -1.09008,2.107886 -2.12904,4.6782 -1.03896,2.570314 -2.17584,5.375294 -2.52643,6.233294 l -0.63739,1.56 h 5.32641 c 2.94715,0 5.25499,-0.19258 5.16643,-0.431121 z M 761.76,79.188434 v -8.651569 l -6.24,-9.853272 c -3.432,-5.419306 -6.24,-9.950098 -6.24,-10.068437 0,-0.118334 1.458,-0.213264 3.24,-0.210955 l 3.24,0.0043 1.75622,2.755805 c 0.96591,1.515691 3.02525,4.744762 4.57637,7.175712 l 2.82015,4.419907 4.53998,-7.179907 4.53994,-7.179912 h 3.24364 c 1.78407,0 3.2437,0.09214 3.2437,0.204758 0,0.112618 -2.808,4.656264 -6.24,10.096992 L 768,70.59411 v 8.623008 8.623009 h -3.12 -3.12 v -8.651569 z m 31.2,-10.068433 v -18.72 h 10.8 10.8 v 2.64 2.64 h -7.92 -7.92 v 4.56 4.56 h 6 6 v 2.88 2.88 h -6 -6 v 6.000001 6 h 8.16 8.16 v 2.64 2.64 H 804 792.96 Z m 36,0 v -18.72 h 8.53829 c 7.90185,0 8.69745,0.08051 10.67357,1.08 2.92603,1.479946 4.76289,4.243248 5.11987,7.702176 0.47885,4.639637 -1.53173,8.257085 -5.72218,10.295352 l -1.75445,0.853388 6.45245,8.480141 c 3.54883,4.664073 6.45245,8.603621 6.45245,8.754542 0,0.150922 -1.566,0.273336 -3.48,0.272031 l -3.48,-0.0024 -6.48,-8.625831 -6.48,-8.625826 -2.04,-0.01181 -2.04,-0.01176 v 8.640001 8.64 h -2.88 -2.88 z m 16.09339,-4.893451 c 1.36512,-0.62197 2.62661,-2.636827 2.62661,-4.195138 0,-0.536947 -0.62986,-1.681675 -1.39973,-2.543836 -1.39075,-1.557562 -1.43217,-1.568621 -6.48,-1.731264 L 834.72,55.592617 v 4.603695 4.603689 h 4.53739 c 2.49562,0 5.10379,-0.258053 5.796,-0.573451 z M 870.72,69.120001 v -18.72 h 2.88 2.88 v 18.72 18.720001 h -2.88 -2.88 z m 102.24,0 v -18.72 h 2.88 2.88 v 7.2 7.2 h 10.08 10.08 v -7.2 -7.2 h 2.88 2.88 v 18.72 18.720001 h -2.88 -2.88 v -8.64 -8.640001 H 988.8 978.72 v 8.640001 8.64 h -2.88 -2.88 z m 48,0 v -18.72 h 11.04 11.04 v 2.64 2.64 h -7.92 -7.92 v 4.56 4.56 h 6 6 v 2.88 2.88 h -6 -6 v 6.000001 6 h 8.16 8.16 v 2.64 2.64 h -11.28 -11.28 z"
       id="path3821"
       inkscape:connector-curvature="0" />
  </g>
</svg>
